<?xml version="1.0" encoding="utf-8"?>
<!-- Generator: Adobe Illustrator 16.0.0, SVG Export Plug-In . SVG Version: 6.00 Build 0)  -->
<!DOCTYPE svg PUBLIC "-//W3C//DTD SVG 1.1//EN" "http://www.w3.org/Graphics/SVG/1.1/DTD/svg11.dtd">
<svg version="1.1" id="圖層_1" xmlns="http://www.w3.org/2000/svg" xmlns:xlink="http://www.w3.org/1999/xlink" x="0px" y="0px"
	 width="108.367px" height="263.86px" viewBox="0 0 108.367 263.86" enable-background="new 0 0 108.367 263.86"
	 xml:space="preserve">
<g>
	<path fill-rule="evenodd" clip-rule="evenodd" fill="#AF9C7B" d="M27.652,83.839c1.738,71.133,18.738,135.255,80.715,180.021
		c-2.803-1.375-5.824-2.442-8.383-4.178c-24.217-16.463-40.467-39.412-52.35-65.652C31.773,159.002,25.109,122.2,27.652,83.839z"/>
	<path fill-rule="evenodd" clip-rule="evenodd" fill="#AF9C7B" d="M74.283,240.385c-4.5,1.78-8.338,3.298-12.168,4.821
		c0.045,0.276,0.096,0.553,0.146,0.836c3.201-0.45,6.402-0.895,9.74-1.357c-6.539,12.594-25.158,13.487-38.096,2.038
		C43.105,235.229,61.285,232.188,74.283,240.385z"/>
	<path fill-rule="evenodd" clip-rule="evenodd" fill="#AF9C7B" d="M56.791,220.888c-12.074,11.134-27.172,9.912-37.389-2.546
		c10.275-9.289,26.301-9.829,38.193-0.585c-4.748,1.202-8.865,2.25-12.986,3.291c0.008,0.276,0.014,0.547,0.02,0.816
		C48.515,221.55,52.398,221.241,56.791,220.888z"/>
	<path fill-rule="evenodd" clip-rule="evenodd" fill="#AF9C7B" d="M63.669,212.28c-0.816-13.731,7.875-24.705,21.92-27.674
		C88.021,198.947,74.552,215.957,63.669,212.28z"/>
	<path fill-rule="evenodd" clip-rule="evenodd" fill="#AF9C7B" d="M43.503,197.341c-12.191,8.273-25.131,5.573-33.732-6.448
		c10.01-8.1,25.08-6.948,35.256,3.517c-4.441,0.585-8.17,1.073-11.895,1.563c-0.02,0.18-0.039,0.359-0.055,0.539
		C36.224,196.762,39.375,197.013,43.503,197.341z"/>
	<path fill-rule="evenodd" clip-rule="evenodd" fill="#AF9C7B" d="M85.757,226.307c-1.742,2.687-3.484,5.374-5.246,8.1
		c-5.939-10.305,3.992-28.278,17.248-32.386c4.191,9.282-1.98,24.55-12.998,31.241c0.752-2.423,1.383-4.454,2.012-6.492
		C86.433,226.615,86.091,226.461,85.757,226.307z"/>
	<path fill-rule="evenodd" clip-rule="evenodd" fill="#AF9C7B" d="M75.369,165.726c-0.115,15.467-13.416,28.703-23.936,24.37
		C52.478,177.194,59.8,169.589,75.369,165.726z"/>
	<path fill-rule="evenodd" clip-rule="evenodd" fill="#AF9C7B" d="M3.763,163.816c10.961-5.856,22.59-3.786,32.381,6.332
		c-4.008,0-7.451,0-10.893,0c-0.027,0.296-0.055,0.598-0.082,0.9c2.85,0.759,5.693,1.517,9.154,2.437
		C20.906,179.566,9.691,175.793,3.763,163.816z"/>
	<path fill-rule="evenodd" clip-rule="evenodd" fill="#AF9C7B" d="M67.373,147.052c-2.18,14.412-12.395,22.981-24.252,20.924
		C43.169,156.669,51.189,149.594,67.373,147.052z"/>
	<path fill-rule="evenodd" clip-rule="evenodd" fill="#AF9C7B" d="M0,137.653c11.961-2.7,21.928-1.23,29.709,8.212
		C22.603,156.501,7.511,152.689,0,137.653z"/>
	<path fill-rule="evenodd" clip-rule="evenodd" fill="#AF9C7B" d="M61.818,127.789c-3.086,11.141-9.664,16.826-18.982,19.5
		c-1.584,0.454-4.123-0.272-5.336-1.401c-0.822-0.768-0.643-3.465,0.029-4.837C42.238,131.45,50.97,129.033,61.818,127.789z"/>
	<path fill-rule="evenodd" clip-rule="evenodd" fill="#AF9C7B" d="M0.281,113.753c8.834-1.99,16.598-0.248,22.994,6.152
		c1.191,1.191,2.033,3.908,1.486,5.328c-0.539,1.418-2.939,2.752-4.676,2.977C10.976,129.399,3.109,123.649,0.281,113.753z"/>
	<path fill-rule="evenodd" clip-rule="evenodd" fill="#AF9C7B" d="M56.47,110.963c-4.693,12.162-15.137,17.581-24.055,12.483
		C36.703,112.833,44.783,108.643,56.47,110.963z"/>
	<path fill-rule="evenodd" clip-rule="evenodd" fill="#AF9C7B" d="M25.199,102.806c-8.707,6.46-18.391,2.082-23.309-10.285
		C10.041,88.65,18.414,92.183,25.199,102.806z"/>
	<path fill-rule="evenodd" clip-rule="evenodd" fill="#AF9C7B" d="M54.914,92.24c-4.695,8.839-10.645,12.921-18.922,13.182
		c-1.619,0.048-3.934-0.881-4.705-2.122c-0.547-0.874,0.613-3.332,1.637-4.573C38.386,92.105,45.769,91.845,54.914,92.24z"/>
	<path fill-rule="evenodd" clip-rule="evenodd" fill="#AF9C7B" d="M5.65,70.67c9.389-1.237,15.152,2.07,19.656,11.272
		C17.482,88.39,8.531,83.257,5.65,70.67z"/>
	<path fill-rule="evenodd" clip-rule="evenodd" fill="#AF9C7B" d="M53.662,78.545c-4.887,2.574-9.605,5.596-14.74,7.473
		c-1.74,0.63-4.539-1.643-6.854-2.584c1.266-1.979,2.154-5.172,3.873-5.712c5.248-1.646,10.816-2.272,16.26-3.297
		C52.687,75.8,53.171,77.173,53.662,78.545z"/>
	<path fill-rule="evenodd" clip-rule="evenodd" fill="#AF9C7B" d="M13.166,48.93c5.51,4.323,11.018,8.646,17.42,13.667
		C19.873,67.87,12.191,62.101,13.166,48.93z"/>
	<path fill-rule="evenodd" clip-rule="evenodd" fill="#AF9C7B" d="M32.8,64.644c6.162-6.987,13.016-6.997,20.52-4.516
		C48.107,68.629,40.681,70.464,32.8,64.644z"/>
	<path fill-rule="evenodd" clip-rule="evenodd" fill="#AF9C7B" d="M19.822,32.184c3.619,3.063,7.471,5.901,10.713,9.321
		c0.967,1.019,0.238,3.654,0.287,5.551c-1.936-0.032-4.738,0.739-5.639-0.241c-3.266-3.552-5.889-7.688-8.752-11.603
		C17.562,34.202,18.691,33.192,19.822,32.184z"/>
	<path fill-rule="evenodd" clip-rule="evenodd" fill="#AF9C7B" d="M37.017,45.166c5.898-0.351,11.797-0.701,17.691-1.048
		c-6.283,9.058-12.693,9.69-17.865,3.921C36.902,47.081,36.96,46.124,37.017,45.166z"/>
	<path fill-rule="evenodd" clip-rule="evenodd" fill="#AF9C7B" d="M28.867,17.62c2.932,3.355,6.018,6.59,8.666,10.154
		c0.584,0.783,0.07,3.387-0.76,3.956c-0.906,0.62-3.436,0.405-4.094-0.398c-2.701-3.301-4.961-6.965-7.381-10.494
		C26.488,19.765,27.677,18.694,28.867,17.62z"/>
	<path fill-rule="evenodd" clip-rule="evenodd" fill="#AF9C7B" d="M58.919,33.54c-6.402,3.278-11.648,6.155-17.24-0.289
		C47.48,28.054,52.671,29.51,58.919,33.54z"/>
	<path fill-rule="evenodd" clip-rule="evenodd" fill="#AF9C7B" d="M61.619,1.974c-2.898,3.7-5.799,7.399-8.697,11.099
		c-0.875-0.672-1.752-1.341-2.625-2.012C49.769,4.825,53.623,1.742,59.337,0C60.095,0.656,60.861,1.315,61.619,1.974z"/>
	<path fill-rule="evenodd" clip-rule="evenodd" fill="#AF9C7B" d="M43.113,18.302c-6.619-1.469-7.6-6.232-4.59-13.426
		c2.461,3.825,4.924,7.65,7.385,11.472C44.976,17,44.044,17.652,43.113,18.302z"/>
	<path fill-rule="evenodd" clip-rule="evenodd" fill="#AF9C7B" d="M48.396,17.794c4.494,0.756,8.986,1.508,13.486,2.266
		c-0.166,1.184-0.334,2.366-0.494,3.552c-4.52-0.424-9.039-0.849-13.559-1.272C48.019,20.821,48.207,19.308,48.396,17.794z"/>
</g>
</svg>
