<?xml version="1.0" encoding="utf-8"?>
<!-- Generator: Adobe Illustrator 16.0.0, SVG Export Plug-In . SVG Version: 6.00 Build 0)  -->
<!DOCTYPE svg PUBLIC "-//W3C//DTD SVG 1.1//EN" "http://www.w3.org/Graphics/SVG/1.1/DTD/svg11.dtd">
<svg version="1.1" id="圖層_1" xmlns="http://www.w3.org/2000/svg" xmlns:xlink="http://www.w3.org/1999/xlink" x="0px" y="0px"
	 width="350px" height="350px" viewBox="0 0 350 350" enable-background="new 0 0 350 350" xml:space="preserve">
<desc>Created with Fabric.js 1.7.22</desc>
<g id="icon" transform="translate(-1.9444444444444287 -1.9444444444444287) scale(3.89 3.89)">
	<path fill="#AF9C7B" d="M58.938,41.512c-1.498,0-2.655,0.431-3.476,1.278c-0.827,0.845-1.342,1.995-1.553,3.45h10.04l0,0
		c-0.109-1.549-0.626-2.721-1.557-3.522C61.468,41.915,60.314,41.512,58.938,41.512z"/>
	<path fill="#AF9C7B" d="M37.047,40.939c0.842-0.513,1.262-1.425,1.262-2.735c0-1.447-0.556-2.408-1.671-2.87
		c-0.958-0.321-2.185-0.487-3.672-0.487h-5.79v6.863h6.583C35.111,41.71,36.205,41.453,37.047,40.939z"/>
	<path fill="#AF9C7B" d="M36.964,47.388c-0.737-0.341-1.777-0.515-3.111-0.527h-6.678v8.291h6.574c1.351,0,2.396-0.177,3.151-0.546
		c1.361-0.678,2.043-1.969,2.043-3.885C38.943,49.105,38.282,47.988,36.964,47.388z"/>
	<path fill="#AF9C7B" d="M45,0C20.147,0,0,20.147,0,45c0,24.853,20.147,45,45,45c24.853,0,45-20.147,45-45C90,20.147,69.853,0,45,0z
		 M52.625,30.735h12.529v3.112h-0.001H52.625V30.735z M44.115,56.129c-0.589,0.968-1.321,1.785-2.201,2.444
		c-0.99,0.761-2.163,1.283-3.511,1.562c-1.352,0.279-2.816,0.42-4.393,0.42H20v-31.11h15.025c3.787,0.062,6.472,1.159,8.058,3.314
		c0.951,1.322,1.423,2.907,1.423,4.751c0,1.902-0.477,3.424-1.438,4.58c-0.534,0.648-1.324,1.238-2.369,1.77
		c1.583,0.579,2.784,1.492,3.587,2.748c0.808,1.252,1.212,2.772,1.212,4.557C45.497,53.011,45.042,54.667,44.115,56.129z
		 M69.994,50.084H53.769c0.089,2.24,0.863,3.806,2.329,4.702c0.884,0.562,1.956,0.837,3.212,0.837c1.324,0,2.403-0.335,3.233-1.023
		c0.453-0.365,0.852-0.879,1.197-1.529h5.947c-0.156,1.323-0.872,2.664-2.159,4.028c-1.994,2.167-4.79,3.253-8.381,3.253
		c-2.967,0-5.581-0.916-7.85-2.742c-2.262-1.832-3.398-4.804-3.398-8.927c0-3.866,1.02-6.825,3.066-8.885
		c2.054-2.064,4.705-3.091,7.972-3.091c1.937,0,3.683,0.346,5.24,1.042c1.553,0.697,2.836,1.793,3.847,3.3
		c0.915,1.327,1.503,2.862,1.777,4.609C69.953,46.677,70.022,48.154,69.994,50.084z"/>
</g>
</svg>
