<?xml version="1.0" encoding="utf-8"?>
<!-- Generator: Adobe Illustrator 16.0.0, SVG Export Plug-In . SVG Version: 6.00 Build 0)  -->
<!DOCTYPE svg PUBLIC "-//W3C//DTD SVG 1.1//EN" "http://www.w3.org/Graphics/SVG/1.1/DTD/svg11.dtd">
<svg version="1.1" id="圖層_1" xmlns="http://www.w3.org/2000/svg" xmlns:xlink="http://www.w3.org/1999/xlink" x="0px" y="0px"
	 width="42.68px" height="42.013px" viewBox="0 0 42.68 42.013" enable-background="new 0 0 42.68 42.013" xml:space="preserve">
<g>
	<path fill="#AF9C7B" d="M31.922,0c2.039,0,3.885,0.498,5.537,1.494c1.651,0.997,2.936,2.432,3.85,4.307s1.371,4.066,1.371,6.574
		c0,2.344-0.375,4.53-1.125,6.557c-0.75,2.027-1.735,3.933-2.953,5.713c-1.219,1.781-2.596,3.451-4.131,5.011
		c-1.535,1.559-3.088,3.047-4.658,4.465c-1.569,1.418-3.082,2.771-4.535,4.061c-1.477,1.313-2.741,2.59-3.797,3.832h-0.315
		c-1.056-1.242-2.31-2.519-3.763-3.832c-1.453-1.289-2.965-2.642-4.534-4.061c-1.57-1.418-3.124-2.906-4.658-4.465
		c-1.535-1.56-2.913-3.229-4.131-5.011c-1.22-1.78-2.203-3.686-2.953-5.713C0.375,16.905,0,14.719,0,12.375
		c0-2.508,0.457-4.693,1.371-6.558C2.285,3.954,3.563,2.52,5.203,1.512C6.843,0.504,8.694,0,10.758,0
		c4.453,0,7.922,2.108,10.406,6.328h0.315C23.964,2.108,27.444,0,31.922,0z"/>
</g>
</svg>
