<?xml version="1.0" encoding="utf-8"?>
<!-- Generator: Adobe Illustrator 16.0.0, SVG Export Plug-In . SVG Version: 6.00 Build 0)  -->
<!DOCTYPE svg PUBLIC "-//W3C//DTD SVG 1.1//EN" "http://www.w3.org/Graphics/SVG/1.1/DTD/svg11.dtd">
<svg version="1.1" id="圖層_1" xmlns="http://www.w3.org/2000/svg" xmlns:xlink="http://www.w3.org/1999/xlink" x="0px" y="0px"
	 width="108.367px" height="263.86px" viewBox="0 0 108.367 263.86" enable-background="new 0 0 108.367 263.86"
	 xml:space="preserve">
<g>
	<path fill-rule="evenodd" clip-rule="evenodd" fill="#AF9C7B" d="M80.714,83.839C78.976,154.972,61.976,219.094,0,263.86
		c2.803-1.375,5.824-2.442,8.383-4.178c24.216-16.463,40.466-39.412,52.349-65.652C76.593,159.002,83.257,122.2,80.714,83.839z"/>
	<path fill-rule="evenodd" clip-rule="evenodd" fill="#AF9C7B" d="M34.083,240.385c4.5,1.78,8.338,3.298,12.169,4.821
		c-0.045,0.276-0.097,0.553-0.147,0.836c-3.201-0.45-6.402-0.895-9.739-1.357c6.538,12.594,25.158,13.487,38.095,2.038
		C65.261,235.229,47.081,232.188,34.083,240.385z"/>
	<path fill-rule="evenodd" clip-rule="evenodd" fill="#AF9C7B" d="M51.575,220.888c12.075,11.134,27.172,9.912,37.389-2.546
		c-10.275-9.289-26.301-9.829-38.193-0.585c4.748,1.202,8.865,2.25,12.986,3.291c-0.008,0.276-0.014,0.547-0.02,0.816
		C59.851,221.55,55.968,221.241,51.575,220.888z"/>
	<path fill-rule="evenodd" clip-rule="evenodd" fill="#AF9C7B" d="M44.696,212.28c0.816-13.731-7.875-24.705-21.92-27.674
		C20.346,198.947,33.813,215.957,44.696,212.28z"/>
	<path fill-rule="evenodd" clip-rule="evenodd" fill="#AF9C7B" d="M64.863,197.341c12.191,8.273,25.131,5.573,33.732-6.448
		c-10.01-8.1-25.08-6.948-35.256,3.517c4.441,0.585,8.17,1.073,11.895,1.563c0.02,0.18,0.039,0.359,0.055,0.539
		C72.142,196.762,68.992,197.013,64.863,197.341z"/>
	<path fill-rule="evenodd" clip-rule="evenodd" fill="#AF9C7B" d="M22.608,226.307c1.742,2.687,3.484,5.374,5.246,8.1
		c5.939-10.305-3.992-28.278-17.248-32.386c-4.19,9.282,1.98,24.55,12.998,31.241c-0.752-2.423-1.382-4.454-2.012-6.492
		C21.934,226.615,22.274,226.461,22.608,226.307z"/>
	<path fill-rule="evenodd" clip-rule="evenodd" fill="#AF9C7B" d="M32.997,165.726c0.115,15.467,13.416,28.703,23.936,24.37
		C55.888,177.194,48.566,169.589,32.997,165.726z"/>
	<path fill-rule="evenodd" clip-rule="evenodd" fill="#AF9C7B" d="M104.603,163.816c-10.961-5.856-22.59-3.786-32.381,6.332
		c4.008,0,7.451,0,10.893,0c0.027,0.296,0.055,0.598,0.082,0.9c-2.85,0.759-5.693,1.517-9.154,2.437
		C87.46,179.566,98.675,175.793,104.603,163.816z"/>
	<path fill-rule="evenodd" clip-rule="evenodd" fill="#AF9C7B" d="M40.993,147.052c2.18,14.412,12.395,22.981,24.252,20.924
		C65.197,156.669,57.177,149.594,40.993,147.052z"/>
	<path fill-rule="evenodd" clip-rule="evenodd" fill="#AF9C7B" d="M108.367,137.653c-11.961-2.7-21.928-1.23-29.709,8.212
		C85.763,156.501,100.855,152.689,108.367,137.653z"/>
	<path fill-rule="evenodd" clip-rule="evenodd" fill="#AF9C7B" d="M46.548,127.789c3.086,11.141,9.665,16.826,18.983,19.5
		c1.584,0.454,4.123-0.272,5.336-1.401c0.822-0.768,0.643-3.465-0.029-4.837C66.128,131.45,57.396,129.033,46.548,127.789z"/>
	<path fill-rule="evenodd" clip-rule="evenodd" fill="#AF9C7B" d="M108.085,113.753c-8.834-1.99-16.598-0.248-22.994,6.152
		c-1.191,1.191-2.033,3.908-1.486,5.328c0.539,1.418,2.939,2.752,4.676,2.977C97.39,129.399,105.257,123.649,108.085,113.753z"/>
	<path fill-rule="evenodd" clip-rule="evenodd" fill="#AF9C7B" d="M51.896,110.963c4.693,12.162,15.136,17.581,24.054,12.483
		C71.664,112.833,63.583,108.643,51.896,110.963z"/>
	<path fill-rule="evenodd" clip-rule="evenodd" fill="#AF9C7B" d="M83.167,102.806c8.707,6.46,18.391,2.082,23.309-10.285
		C98.326,88.65,89.953,92.183,83.167,102.806z"/>
	<path fill-rule="evenodd" clip-rule="evenodd" fill="#AF9C7B" d="M53.452,92.24c4.696,8.839,10.645,12.921,18.922,13.182
		c1.619,0.048,3.934-0.881,4.705-2.122c0.547-0.874-0.613-3.332-1.637-4.573C69.98,92.105,62.597,91.845,53.452,92.24z"/>
	<path fill-rule="evenodd" clip-rule="evenodd" fill="#AF9C7B" d="M102.716,70.67c-9.389-1.237-15.152,2.07-19.656,11.272
		C90.884,88.39,99.835,83.257,102.716,70.67z"/>
	<path fill-rule="evenodd" clip-rule="evenodd" fill="#AF9C7B" d="M54.705,78.545c4.887,2.574,9.605,5.596,14.74,7.473
		c1.74,0.63,4.539-1.643,6.854-2.584c-1.266-1.979-2.154-5.172-3.873-5.712c-5.248-1.646-10.816-2.272-16.26-3.297
		C55.679,75.8,55.195,77.173,54.705,78.545z"/>
	<path fill-rule="evenodd" clip-rule="evenodd" fill="#AF9C7B" d="M95.201,48.93c-5.51,4.323-11.018,8.646-17.42,13.667
		C88.494,67.87,96.175,62.101,95.201,48.93z"/>
	<path fill-rule="evenodd" clip-rule="evenodd" fill="#AF9C7B" d="M75.566,64.644c-6.162-6.987-13.016-6.997-20.52-4.516
		C60.259,68.629,67.685,70.464,75.566,64.644z"/>
	<path fill-rule="evenodd" clip-rule="evenodd" fill="#AF9C7B" d="M88.544,32.184c-3.619,3.063-7.471,5.901-10.713,9.321
		c-0.967,1.019-0.238,3.654-0.287,5.551c1.936-0.032,4.738,0.739,5.639-0.241c3.266-3.552,5.889-7.688,8.752-11.603
		C90.804,34.202,89.675,33.192,88.544,32.184z"/>
	<path fill-rule="evenodd" clip-rule="evenodd" fill="#AF9C7B" d="M71.349,45.166c-5.898-0.351-11.797-0.701-17.692-1.048
		c6.284,9.058,12.694,9.69,17.866,3.921C71.464,47.081,71.406,46.124,71.349,45.166z"/>
	<path fill-rule="evenodd" clip-rule="evenodd" fill="#AF9C7B" d="M79.5,17.62c-2.932,3.355-6.018,6.59-8.666,10.154
		c-0.584,0.783-0.07,3.387,0.76,3.956c0.906,0.62,3.436,0.405,4.094-0.398c2.701-3.301,4.961-6.965,7.381-10.494
		C81.878,19.765,80.689,18.694,79.5,17.62z"/>
	<path fill-rule="evenodd" clip-rule="evenodd" fill="#AF9C7B" d="M49.447,33.54c6.402,3.278,11.648,6.155,17.24-0.289
		C60.886,28.054,55.695,29.51,49.447,33.54z"/>
	<path fill-rule="evenodd" clip-rule="evenodd" fill="#AF9C7B" d="M46.747,1.974c2.899,3.7,5.799,7.399,8.698,11.099
		c0.875-0.672,1.752-1.341,2.625-2.012C58.597,4.825,54.744,1.742,49.029,0C48.271,0.656,47.506,1.315,46.747,1.974z"/>
	<path fill-rule="evenodd" clip-rule="evenodd" fill="#AF9C7B" d="M65.253,18.302c6.619-1.469,7.6-6.232,4.59-13.426
		c-2.461,3.825-4.924,7.65-7.385,11.472C63.39,17,64.322,17.652,65.253,18.302z"/>
	<path fill-rule="evenodd" clip-rule="evenodd" fill="#AF9C7B" d="M59.97,17.794c-4.494,0.756-8.987,1.508-13.487,2.266
		c0.167,1.184,0.334,2.366,0.495,3.552c4.519-0.424,9.039-0.849,13.558-1.272C60.347,20.821,60.16,19.308,59.97,17.794z"/>
</g>
</svg>
