<?xml version="1.0" encoding="utf-8"?>
<!-- Generator: Adobe Illustrator 16.0.0, SVG Export Plug-In . SVG Version: 6.00 Build 0)  -->
<!DOCTYPE svg PUBLIC "-//W3C//DTD SVG 1.1//EN" "http://www.w3.org/Graphics/SVG/1.1/DTD/svg11.dtd">
<svg version="1.1" id="圖層_1" xmlns="http://www.w3.org/2000/svg" xmlns:xlink="http://www.w3.org/1999/xlink" x="0px" y="0px"
	 width="391.235px" height="152.512px" viewBox="0 0 391.235 152.512" enable-background="new 0 0 391.235 152.512"
	 xml:space="preserve">
<g>
	<path fill-rule="evenodd" clip-rule="evenodd" fill="#AF9C7B" d="M51.186,62.324c17.954,12.855,38.335,19.797,59.291,25.823
		c14.368,4.129,28.417,9.641,42.181,15.539c16.052,6.875,30.486,16.539,42.902,29.178c26.604-26.072,60.151-37.588,94.563-47.822
		c13.398-3.986,26.061-10.436,39.06-15.772c1.223-0.503,2.419-1.077,3.823-1.188c-10.762,7.691-22.555,13.34-35.146,17.124
		c-24.793,7.443-49.582,14.967-71.654,28.928c-9.721,6.148-18.604,13.623-28.09,20.658c4.342,5.867,7.855,10.611,11.52,15.561
		c-2.158,2.268-3.563,3.357-5.569,0.186c-2.397-3.793-5.241-7.307-8.383-11.611c-3.092,4.186-5.94,7.646-8.322,11.398
		c-1.783,2.805-3.29,2.934-5.722,0.076c3.558-4.785,7.186-9.664,10.883-14.635c-15.322-16.145-33.959-27.225-54.338-35.16
		c-17.804-6.934-36.367-11.928-54.132-18.953c-11.822-4.677-22.825-11.417-34.196-17.237C50.298,63.719,50.74,63.022,51.186,62.324z
		"/>
	<path fill-rule="evenodd" clip-rule="evenodd" fill="#AF9C7B" d="M211.906,82.104c8.587,8.795,9.649,24.186,1.653,33.924
		c-1.082-4.412-2.025-8.266-2.969-12.117c-0.217,0-0.43,0-0.646,0c0.327,3.66,0.65,7.32,0.965,10.811
		C200.884,109.152,201.329,90.256,211.906,82.104z"/>
	<path fill-rule="evenodd" clip-rule="evenodd" fill="#AF9C7B" d="M179.254,82.17c10.624,8.98,11.181,23.814,0.919,33.398
		c0.587-4.941,1.137-9.563,1.686-14.188c-0.226-0.027-0.451-0.053-0.678-0.08c-1.039,4.684-2.078,9.367-3.194,14.387
		C169.638,107.857,170.517,91.447,179.254,82.17z"/>
	<path fill-rule="evenodd" clip-rule="evenodd" fill="#AF9C7B" d="M155.93,72.835c10.095,6.768,12.133,19.569,4.319,30.823
		c0-4.436,0-8.219,0-12.006c-0.262-0.023-0.525-0.045-0.786-0.063c-0.538,4.049-1.077,8.104-1.631,12.295
		C149.335,97.535,148.523,82.574,155.93,72.835z"/>
	<path fill-rule="evenodd" clip-rule="evenodd" fill="#AF9C7B" d="M233.51,104.34c-0.527-3.992-0.971-7.336-1.413-10.686
		c-0.218-0.004-0.439-0.004-0.66-0.004c0,3.102,0,6.207,0,9.645c-8.303-8.896-6.642-21.992,3.509-30.628
		C242.743,80.406,242.321,95.785,233.51,104.34z"/>
	<path fill-rule="evenodd" clip-rule="evenodd" fill="#AF9C7B" d="M244.249,139.338c-11.151,1.404-21.04-4.064-27.558-15.707
		c2.862,1.674,4.869,2.854,6.876,4.027c0.182-0.209,0.363-0.416,0.545-0.625c-2.002-1.715-4.01-3.43-6.101-5.219
		C226.899,117.264,240.164,126.117,244.249,139.338z"/>
	<path fill-rule="evenodd" clip-rule="evenodd" fill="#AF9C7B" d="M173.707,121.518c-2.557,2.117-4.628,3.836-6.699,5.551
		c0.124,0.23,0.25,0.457,0.374,0.688c2.111-1.246,4.221-2.486,6.352-3.74c-3.35,10.049-16.094,17.307-26.483,15.104
		C150.214,126.768,163.171,117.85,173.707,121.518z"/>
	<path fill-rule="evenodd" clip-rule="evenodd" fill="#AF9C7B" d="M130.791,129.387c3.205-9.602,8.136-16.992,17.996-19.682
		c1.717-0.469,5.062-0.154,5.433,0.727c0.727,1.742,0.502,4.445-0.401,6.195C149.353,125.266,139.995,130.436,130.791,129.387z"/>
	<path fill-rule="evenodd" clip-rule="evenodd" fill="#AF9C7B" d="M139.669,93.996c-0.159-2.619-0.308-5.043-0.456-7.461
		c-0.246-0.014-0.491-0.027-0.737-0.041c-0.279,2.756-0.561,5.516-0.851,8.365c-8.411-3.469-9.905-21.727-4.067-28.69
		C143.394,71.32,146.51,85.041,139.669,93.996z"/>
	<path fill-rule="evenodd" clip-rule="evenodd" fill="#AF9C7B" d="M236.163,109.463c11.843-0.621,20.346,6.703,23.867,19.596
		c-9.353,2.303-20.078-4.945-24.5-17.234c2.468,1.945,4.328,3.406,6.189,4.869c0.208-0.182,0.416-0.363,0.624-0.545
		C240.475,114.127,238.604,112.104,236.163,109.463z"/>
	<path fill-rule="evenodd" clip-rule="evenodd" fill="#AF9C7B" d="M252.857,83.73c-0.545,3.313-1.085,6.627-1.612,9.844
		c-6.252-8.83-3.62-20.77,6.172-27.54c6.322,8.73,4.926,22.024-3.545,29.028c0-4.021,0-7.646,0-11.271
		C253.535,83.77,253.194,83.752,252.857,83.73z"/>
	<path fill-rule="evenodd" clip-rule="evenodd" fill="#AF9C7B" d="M114.462,121.322c2.481-12.658,9.189-19.529,21.209-20.979
		c-0.461,3.164-0.171,6.287-1.394,8.623C130.271,116.609,124.003,121.168,114.462,121.322z"/>
	<path fill-rule="evenodd" clip-rule="evenodd" fill="#AF9C7B" d="M276.565,120.959c-12.007,0.332-19.632-7.457-20.128-20.074
		C266.321,100.336,275.085,108.943,276.565,120.959z"/>
	<path fill-rule="evenodd" clip-rule="evenodd" fill="#AF9C7B" d="M120.029,87.328c-0.62-3.174-1.097-5.605-1.573-8.043
		c-0.144-0.002-0.285-0.006-0.43-0.008c0,2.844,0,5.684,0,8.693c-8.234-4.264-10.584-16.688-5.31-26.524
		C121.925,66.367,125.044,76.701,120.029,87.328z"/>
	<path fill-rule="evenodd" clip-rule="evenodd" fill="#AF9C7B" d="M278.515,61.32c5.281,9.93,3.07,21.594-5.166,26.862
		c0-2.848,0-5.463,0-8.078c-0.234-0.01-0.475-0.02-0.713-0.031c-0.288,2.209-0.576,4.416-0.878,6.705
		C265.507,79.916,268.772,67.392,278.515,61.32z"/>
	<path fill-rule="evenodd" clip-rule="evenodd" fill="#AF9C7B" d="M97.39,114.496c1.623-9.629,5.294-16.615,13.834-20.094
		c1.254-0.51,3.73-0.531,4.242,0.199c0.924,1.316,1.484,3.611,0.981,5.088C113.51,108.279,107.267,112.957,97.39,114.496z"/>
	<path fill-rule="evenodd" clip-rule="evenodd" fill="#AF9C7B" d="M78.783,105.908c0.171-8.732,7.627-16.291,18.046-17.867
		c-0.258,1.223-0.479,2.277-0.719,3.42c0.807-0.318,1.569-0.625,3.257-1.289c-1.317,3.221-2.06,5.959-3.469,8.299
		C92.447,104.193,85.734,106.959,78.783,105.908z"/>
	<path fill-rule="evenodd" clip-rule="evenodd" fill="#AF9C7B" d="M312.532,106.236c-11.732,0.08-19.021-5.75-19.384-15.373
		c0.922,0.584,1.737,1.104,3.54,2.25c-1.231-2.18-1.923-3.416-2.747-4.873C304.185,88.883,312.094,96.582,312.532,106.236z"/>
	<path fill-rule="evenodd" clip-rule="evenodd" fill="#AF9C7B" d="M274.536,96.113c1.644,1.771,3.102,3.34,4.559,4.914
		c0.209-0.182,0.417-0.363,0.625-0.541c-1.396-1.949-2.796-3.898-4.315-6.021c9.127-1.086,17.461,8.152,17.913,19.299
		C283.597,113.756,275.063,105.904,274.536,96.113z"/>
	<path fill-rule="evenodd" clip-rule="evenodd" fill="#AF9C7B" d="M60.007,95.9c2.978-7.682,7.813-12.799,15.877-14.262
		c3.713-0.678,5.29,1.303,4.018,4.848C77.187,94.053,68.587,98.338,60.007,95.9z"/>
	<path fill-rule="evenodd" clip-rule="evenodd" fill="#AF9C7B" d="M331.052,95.869c-8.423,2.668-18.231-2.504-20.013-10.328
		c-0.651-2.848,0.456-4.395,3.633-4.133C321.539,81.971,327.915,87.465,331.052,95.869z"/>
	<path fill-rule="evenodd" clip-rule="evenodd" fill="#AF9C7B" d="M96.468,58.078c6.525,7.192,8.043,15.413,4.33,23.774
		c-0.392-1.941-0.688-3.402-1.289-6.38c-0.272,3.324-0.421,5.144-0.571,6.982C91.505,79.004,90.249,67.175,96.468,58.078z"/>
	<path fill-rule="evenodd" clip-rule="evenodd" fill="#AF9C7B" d="M295.001,58.08c5.755,10.02,4.842,19.106-2.969,25.354
		c0.262-3.549,0.47-6.425,0.682-9.3c-0.154-0.031-0.305-0.064-0.456-0.095c-0.598,2.279-1.196,4.557-1.79,6.834
		C286.44,74.076,288.23,64.709,295.001,58.08z"/>
	<path fill-rule="evenodd" clip-rule="evenodd" fill="#AF9C7B" d="M44.522,84.559c3.198-6.336,8.02-10.42,15.228-11.3
		c2.576-0.316,4.636,2.906,3.522,5.248C60.835,83.637,51.203,89.012,44.522,84.559z"/>
	<path fill-rule="evenodd" clip-rule="evenodd" fill="#AF9C7B" d="M326.874,75.462c1.448,0.84,2.334,1.354,3.225,1.87
		c0.155-0.162,0.311-0.324,0.47-0.485c-0.842-0.941-1.688-1.881-3.238-3.615c2.042,0,3.212-0.078,4.364,0.011
		c6.49,0.499,12.472,5.308,14.527,11.638C338.49,88.342,330.776,84.766,326.874,75.462z"/>
	<path fill-rule="evenodd" clip-rule="evenodd" fill="#AF9C7B" d="M309.462,77.08c-0.182-3.179-0.324-5.693-0.465-8.203
		c-0.156-0.014-0.307-0.022-0.461-0.035c-0.174,2.184-0.351,4.368-0.527,6.605c-5.117-5.394-4.307-15.482,1.661-21.435
		C315.917,62.45,316.023,70.824,309.462,77.08z"/>
	<path fill-rule="evenodd" clip-rule="evenodd" fill="#AF9C7B" d="M81.974,53.591c5.563,7.229,5.398,14.443,1.862,23.521
		c-0.64-2.749-0.954-4.09-1.55-6.639c-0.338,2.853-0.534,4.519-0.749,6.342C75.418,71.201,75.516,62.184,81.974,53.591z"/>
	<path fill-rule="evenodd" clip-rule="evenodd" fill="#AF9C7B" d="M323.023,48.279c6.584,8.093,7.328,14.291,2.397,21.349
		c-0.488-1.783-0.864-3.159-1.369-5.002c-0.391,1.32-0.665,2.244-0.944,3.19C318.318,62.291,318.234,55.123,323.023,48.279z"/>
	<path fill-rule="evenodd" clip-rule="evenodd" fill="#AF9C7B" d="M359.801,73.296c-7.208,2.403-12.772,1.293-16.441-3.437
		c-0.854-1.103-1.294-3.156-0.864-4.41c0.307-0.893,2.397-1.677,3.674-1.648C351.671,63.921,357.143,67.793,359.801,73.296z"/>
	<path fill-rule="evenodd" clip-rule="evenodd" fill="#AF9C7B" d="M68.259,47.987c4.679,7.815,4.643,12.815,0.044,20.856
		c-0.334-0.725-0.58-1.163-0.744-1.631c-0.159-0.454-0.232-0.937-0.517-2.144c-0.379,1.911-0.611,3.09-0.985,4.979
		c-1.065-1.467-2.034-2.304-2.377-3.348C61.383,59.695,63.388,53.702,68.259,47.987z"/>
	<path fill-rule="evenodd" clip-rule="evenodd" fill="#AF9C7B" d="M31.512,73.447c2.501-5.844,8.835-10.089,14.441-9.661
		c0.95,0.073,2.277,1.083,2.605,1.968c0.398,1.08,0.392,2.824-0.244,3.69C44.604,74.497,39.407,75.702,31.512,73.447z"/>
	<path fill-rule="evenodd" clip-rule="evenodd" fill="#AF9C7B" d="M56.212,42.185c4.469,7.813,2.256,16.616-4.676,18.59
		C48.23,53.82,49.863,47.327,56.212,42.185z"/>
	<path fill-rule="evenodd" clip-rule="evenodd" fill="#AF9C7B" d="M335.034,41.443c4.79,5.21,7.864,9.995,5.946,16.517
		c-0.297,1.008-1.502,2.647-1.937,2.541c-1.329-0.323-2.973-1.059-3.637-2.153C332.318,53.256,332.084,47.9,335.034,41.443z"/>
	<path fill-rule="evenodd" clip-rule="evenodd" fill="#AF9C7B" d="M371.502,60.556c-6.057,3.268-11.63,2.866-15.547-1.27
		c-0.891-0.943-1.191-2.791-1.09-4.174c0.04-0.566,1.848-1.384,2.885-1.436C363.558,53.39,368.06,55.791,371.502,60.556z"/>
	<path fill-rule="evenodd" clip-rule="evenodd" fill="#AF9C7B" d="M19.809,60.457c3.494-4.628,7.975-7.089,13.779-6.774
		c1.085,0.058,2.981,0.765,3.028,1.3c0.122,1.352-0.213,3.1-1.053,4.121C32.09,63.321,25.586,63.833,19.809,60.457z"/>
	<path fill-rule="evenodd" clip-rule="evenodd" fill="#AF9C7B" d="M345.783,35.035c6.526,5.128,8.081,9.326,6.216,15.998
		C345.499,50.448,342.633,43.366,345.783,35.035z"/>
	<path fill-rule="evenodd" clip-rule="evenodd" fill="#AF9C7B" d="M45.754,35.238c2.579,8.865-0.117,15.217-6.349,15.839
		C37.165,44.597,39.232,39.294,45.754,35.238z"/>
	<path fill-rule="evenodd" clip-rule="evenodd" fill="#AF9C7B" d="M10.697,47.8c3.622-4.508,8.135-5.479,13.146-4.885
		c0.931,0.111,2.508,0.962,2.508,1.469c-0.002,1.208-0.459,2.717-1.287,3.561C21.847,51.23,16.677,51.201,10.697,47.8z"/>
	<path fill-rule="evenodd" clip-rule="evenodd" fill="#AF9C7B" d="M380.673,47.785c-4.355,3.306-8.768,3.627-13.185,1.02
		c-1.095-0.645-1.94-2.523-1.959-3.848c-0.009-0.721,1.896-1.989,3.04-2.118C373.306,42.304,377.341,43.869,380.673,47.785z"/>
	<path fill-rule="evenodd" clip-rule="evenodd" fill="#AF9C7B" d="M362.485,41.166c-5.954,0.176-9.241-5.575-7.784-13.081
		C360.395,30.329,362.605,33.935,362.485,41.166z"/>
	<path fill-rule="evenodd" clip-rule="evenodd" fill="#AF9C7B" d="M3.624,34.259c3.835-2.984,7.59-3.997,11.801-2.515
		c1.035,0.363,1.846,1.369,2.758,2.08c-0.839,1.062-1.462,2.632-2.556,3.095C11.287,38.758,7.354,37.927,3.624,34.259z"/>
	<path fill-rule="evenodd" clip-rule="evenodd" fill="#AF9C7B" d="M37.631,28.348c-0.88,3.279-1.376,6.739-2.803,9.761
		c-0.722,1.535-3.123,2.281-4.765,3.385c-0.286-1.896-1.362-4.153-0.696-5.615c1.414-3.1,3.735-5.786,5.684-8.645
		C35.912,27.607,36.771,27.976,37.631,28.348z"/>
	<path fill-rule="evenodd" clip-rule="evenodd" fill="#AF9C7B" d="M387.487,34.106c-2.951,3.425-6.35,4.579-10.234,3.224
		c-1.741-0.607-3.128-2.22-5.157-3.735C378.241,29.968,382.773,30.725,387.487,34.106z"/>
	<path fill-rule="evenodd" clip-rule="evenodd" fill="#AF9C7B" d="M362.176,20.429c6.265,2.038,8.205,4.709,7.771,10.69
		C364.785,31.034,362.162,27.429,362.176,20.429z"/>
	<path fill-rule="evenodd" clip-rule="evenodd" fill="#AF9C7B" d="M20.958,31.02c-0.895-5.806,3.197-8.243,7.144-10.859
		C30.57,25.251,26.691,31.162,20.958,31.02z"/>
	<path fill-rule="evenodd" clip-rule="evenodd" fill="#AF9C7B" d="M0,20.384c4.459-2.917,8.268-1.287,12.153,1.128
		C8.708,26.86,4.479,26.437,0,20.384z"/>
	<path fill-rule="evenodd" clip-rule="evenodd" fill="#AF9C7B" d="M379.096,20.553c4.368-0.616,8.254-1.165,12.14-1.713
		C386.823,26.443,382.711,26.917,379.096,20.553z"/>
	<path fill-rule="evenodd" clip-rule="evenodd" fill="#AF9C7B" d="M24.662,14.138c-2.583,2.638-5.166,5.275-8.566,8.744
		c-0.835-6.573,0.784-8.307,7.366-10.004C23.863,13.298,24.262,13.719,24.662,14.138z"/>
	<path fill-rule="evenodd" clip-rule="evenodd" fill="#AF9C7B" d="M379.18,11.165c1.099-3.382,2.193-6.763,3.62-11.165
		c3.057,5.427,2.148,9.229-1.719,11.803C380.447,11.59,379.813,11.377,379.18,11.165z"/>
	<path fill-rule="evenodd" clip-rule="evenodd" fill="#AF9C7B" d="M375.724,21.184c-5.156,0.127-6.246-4.441-8.52-7.649
		c0.359-0.454,0.718-0.906,1.072-1.36c3.018,2.286,6.034,4.572,9.052,6.859C376.792,19.751,376.261,20.466,375.724,21.184z"/>
	<path fill-rule="evenodd" clip-rule="evenodd" fill="#AF9C7B" d="M8.715,0.441c1.154,3.551,2.309,7.102,3.85,11.84
		C6.287,9.811,5.494,7.503,7.049,0.817C7.605,0.693,8.161,0.567,8.715,0.441z"/>
</g>
</svg>
