<?xml version="1.0" encoding="utf-8"?>
<!-- Generator: Adobe Illustrator 16.0.0, SVG Export Plug-In . SVG Version: 6.00 Build 0)  -->
<!DOCTYPE svg PUBLIC "-//W3C//DTD SVG 1.1//EN" "http://www.w3.org/Graphics/SVG/1.1/DTD/svg11.dtd">
<svg version="1.1" id="圖層_1" xmlns="http://www.w3.org/2000/svg" xmlns:xlink="http://www.w3.org/1999/xlink" x="0px" y="0px"
	 width="283.466px" height="283.466px" viewBox="0 0 283.466 283.466" enable-background="new 0 0 283.466 283.466"
	 xml:space="preserve">
<path fill="#AF9C7B" d="M283.466,226.772c0,31.311-25.383,56.693-56.693,56.693H56.693C25.383,283.466,0,258.083,0,226.772V56.693
	C0,25.383,25.383,0,56.693,0h170.079c31.311,0,56.693,25.383,56.693,56.693V226.772z"/>
<g>
	<path fill="#EBE9DD" d="M150.435,204.335H76.167V68.192H97.26v118.038h53.174V204.335z"/>
	<path fill="#EBE9DD" d="M223.12,126.815c-3.047-1.991-7.09-2.988-12.129-2.988c-6.68,0-12.086,2.931-16.217,8.789
		c-4.131,5.86-6.195,13.624-6.195,23.292v48.428h-20.654v-97.208h20.654v19.336h0.439c4.803-14.003,13.301-21.006,25.488-21.006
		c3.633,0,6.504,0.411,8.613,1.23V126.815z"/>
</g>
</svg>
