<?xml version="1.0" encoding="utf-8"?>
<!-- Generator: Adobe Illustrator 16.0.0, SVG Export Plug-In . SVG Version: 6.00 Build 0)  -->
<!DOCTYPE svg PUBLIC "-//W3C//DTD SVG 1.1//EN" "http://www.w3.org/Graphics/SVG/1.1/DTD/svg11.dtd">
<svg version="1.1" id="圖層_1" xmlns="http://www.w3.org/2000/svg" xmlns:xlink="http://www.w3.org/1999/xlink" x="0px" y="0px"
	 width="283.466px" height="283.466px" viewBox="0 0 283.466 283.466" enable-background="new 0 0 283.466 283.466"
	 xml:space="preserve">
<path fill="#AF9C7B" d="M283.466,226.772c0,31.311-25.383,56.693-56.693,56.693H56.693C25.383,283.466,0,258.083,0,226.772V56.693
	C0,25.383,25.383,0,56.693,0h170.079c31.311,0,56.693,25.383,56.693,56.693V226.772z"/>
<g>
	<path fill="#EBE9DD" d="M81.088,156.501v49.834H59.995V70.192h41.133c15.41,0,27.216,3.56,35.42,10.679
		c8.203,7.119,12.305,17.446,12.305,30.981c0,13.653-4.894,24.625-14.678,32.915c-9.786,8.293-21.885,12.203-36.299,11.734H81.088z
		 M81.088,87.858v51.064h15.117c20.332,0,30.498-8.73,30.498-26.191c0-16.581-9.756-24.873-29.268-24.873H81.088z"/>
	<path fill="#EBE9DD" d="M165.552,183.747c9.081,6.152,18.514,9.229,28.301,9.229c12.889,0,19.336-3.984,19.336-11.953
		c0-3.34-1.35-6.078-4.043-8.219c-2.696-2.138-8.761-4.965-18.193-8.48c-9.903-3.809-16.583-7.867-20.039-12.174
		c-3.459-4.307-5.186-9.711-5.186-16.215c0-8.965,3.748-16.054,11.25-21.27c7.499-5.214,16.787-7.822,27.861-7.822
		c8.494,0,16.436,1.406,23.818,4.219v18.281c-7.383-4.57-15.645-6.855-24.785-6.855c-5.217,0-9.436,1.085-12.656,3.252
		c-3.224,2.168-4.834,5.01-4.834,8.525c0,3.458,1.186,6.183,3.559,8.174c2.373,1.993,7.836,4.629,16.393,7.911
		c10.547,3.867,17.738,7.984,21.576,12.348c3.838,4.366,5.758,9.801,5.758,16.305c0,9.199-3.751,16.436-11.25,21.709
		c-7.502,5.273-17.346,7.91-29.531,7.91c-10.431,0-19.543-1.817-27.334-5.449V183.747z"/>
</g>
</svg>
