<?xml version="1.0" encoding="utf-8"?>
<!-- Generator: Adobe Illustrator 16.0.0, SVG Export Plug-In . SVG Version: 6.00 Build 0)  -->
<!DOCTYPE svg PUBLIC "-//W3C//DTD SVG 1.1//EN" "http://www.w3.org/Graphics/SVG/1.1/DTD/svg11.dtd">
<svg version="1.1" id="圖層_1" xmlns="http://www.w3.org/2000/svg" xmlns:xlink="http://www.w3.org/1999/xlink" x="0px" y="0px"
	 width="283.466px" height="283.466px" viewBox="0 0 283.466 283.466" enable-background="new 0 0 283.466 283.466"
	 xml:space="preserve">
<path fill="#AF9C7B" d="M283.466,226.772c0,31.311-25.383,56.693-56.693,56.693H56.693C25.383,283.466,0,258.083,0,226.772V56.693
	C0,25.383,25.383,0,56.693,0h170.079c31.311,0,56.693,25.383,56.693,56.693V226.772z"/>
<g>
	<path fill="#EBE9DD" d="M179.702,209.335h-23.203l-12.744-35.42H89.262l-12.129,35.42H53.93l51.328-136.143h23.467L179.702,209.335
		z M137.866,156.425l-18.984-53.702c-0.703-1.934-1.406-5.361-2.109-10.283h-0.615c-0.527,4.043-1.261,7.413-2.197,10.107
		l-18.896,53.877H137.866z"/>
	<path fill="#EBE9DD" d="M194.028,78.729c0-3.457,1.186-6.313,3.559-8.569c2.373-2.255,5.375-3.384,9.01-3.384
		c3.572,0,6.592,1.129,9.053,3.384c2.461,2.256,3.691,5.113,3.691,8.569c0,3.458-1.23,6.314-3.691,8.569
		c-2.461,2.256-5.48,3.384-9.053,3.384c-3.574,0-6.563-1.143-8.965-3.428C195.228,84.969,194.028,82.128,194.028,78.729z
		 M196.05,209.335v-97.208h20.654v97.208H196.05z"/>
</g>
</svg>
