<?xml version="1.0" encoding="utf-8"?>
<!-- Generator: Adobe Illustrator 16.0.0, SVG Export Plug-In . SVG Version: 6.00 Build 0)  -->
<!DOCTYPE svg PUBLIC "-//W3C//DTD SVG 1.1//EN" "http://www.w3.org/Graphics/SVG/1.1/DTD/svg11.dtd">
<svg version="1.1" id="圖層_1" xmlns="http://www.w3.org/2000/svg" xmlns:xlink="http://www.w3.org/1999/xlink" x="0px" y="0px"
	 width="275.685px" height="262.213px" viewBox="0 0 275.685 262.213" enable-background="new 0 0 275.685 262.213"
	 xml:space="preserve">
<g>
	<path fill-rule="evenodd" clip-rule="evenodd" fill="#AF9C7B" d="M156.289,0c0,9.558,0,19.009,0,28.559c0.484,0,0.886,0,1.288,0
		c34.787,0,69.574,0.004,104.362-0.007c3.116,0,6.022,0.621,8.549,2.543c3.39,2.579,5.073,6.028,5.195,10.264
		c0.004,0.127,0.001,0.255,0.001,0.383c0,57.384,0.007,114.768-0.012,172.152c-0.002,5.506-2.521,9.553-7.487,11.995
		c-1.719,0.845-3.576,1.162-5.488,1.162c-35.043,0-70.085,0-105.128,0c-0.379,0-0.759,0-1.245,0c0,11.714,0,23.375,0,35.162
		c-1.464-0.264-2.806-0.497-4.144-0.749c-8.608-1.622-17.217-3.247-25.825-4.873c-11.761-2.221-23.521-4.445-35.283-6.664
		c-9.31-1.756-18.621-3.505-27.931-5.26c-10.686-2.014-21.371-4.028-32.057-6.043c-10.085-1.902-20.168-3.816-30.26-5.685
		c-0.713-0.132-0.817-0.415-0.816-1.039c0.014-18.771,0.011-37.541,0.011-56.313c0-48.381,0.002-96.762-0.02-145.143
		c0-0.821,0.202-1.099,1.036-1.254c13.594-2.533,27.18-5.112,40.769-7.674c11.787-2.223,23.577-4.432,35.363-6.656
		c11.761-2.219,23.52-4.457,35.281-6.674c11.788-2.222,23.579-4.428,35.368-6.644c2.552-0.48,5.103-0.973,7.654-1.455
		C155.691,0.048,155.917,0.04,156.289,0z M243.074,167.382c-28.939,0-57.838,0-86.727,0c0,5.638,0,11.16,0,16.77
		c28.936,0,57.816,0,86.703,0c0,3.995,0,7.902,0,11.896c-28.945,0-57.825,0-86.698,0c0,7.546,0,15.003,0,22.483
		c36.135,0,72.208,0,108.307,0c0-60.524,0-120.998,0-181.473c-36.142,0-72.217,0-108.288,0c0,14.637,0,29.219,0,43.91
		c9.201-12.881,23.008-16.338,30.861-15.944c0,12.495,0,24.997,0,37.589c12.618,0,25.123,0,37.771,0
		c-0.791,15.322-7.608,26.768-21.268,33.742c-8.212,4.194-16.975,4.914-25.902,2.633c-8.923-2.281-16.004-7.346-21.482-14.891
		c0,10.555,0,20.941,0,31.414c28.938,0,57.818,0,86.723,0C243.074,159.487,243.074,163.377,243.074,167.382z M65.426,173.152
		c0-0.534,0-0.913,0-1.292c0-9.28,0.007-18.562-0.013-27.842c-0.001-0.713,0.156-0.983,0.927-0.947
		c2.063,0.096,4.129,0.098,6.193,0.153c3.066,0.081,6.116-0.073,9.119-0.733c9.507-2.092,16.23-7.627,20.186-16.494
		c1.476-3.308,2.194-6.823,2.42-10.441c0.333-5.334-0.009-10.594-1.741-15.695c-2.002-5.902-5.728-10.27-11.501-12.775
		c-3.875-1.683-7.979-2.353-12.155-2.271c-4.402,0.085-8.798,0.467-13.195,0.748c-3.354,0.214-6.706,0.472-10.058,0.713
		c-2.053,0.147-4.105,0.3-6.19,0.452c0,28.46,0,56.848,0,85.298C54.739,172.4,60.014,172.771,65.426,173.152z"/>
	<path fill-rule="evenodd" clip-rule="evenodd" fill="#AF9C7B" d="M192.05,59.497c10.877,0.04,20.117,3.801,27.607,11.561
		c6.92,7.169,10.323,15.847,10.532,25.91c-0.398,0-0.672,0-0.944,0c-9.436,0.02-18.872,0.037-28.309,0.061
		c-2.345,0.005-4.69,0.042-7.035,0.05c-1.456,0.005-1.232,0.083-1.255-1.212c-0.128-7.343-0.243-14.686-0.366-22.03
		c-0.074-4.411-0.153-8.821-0.229-13.231C192.045,60.28,192.05,59.955,192.05,59.497z"/>
	<path fill-rule="evenodd" clip-rule="evenodd" fill="#AF9C7B" d="M65.426,128.086c0-0.538,0-0.791,0-1.043
		c0-8.385,0-16.771,0-25.157c0-1.018,0.001-1.078,1.03-1.101c2.977-0.064,5.975-0.309,8.927-0.055
		c5.274,0.453,8.467,3.398,9.546,8.588c0.783,3.768,0.697,7.553-0.633,11.22c-1.458,4.016-4.438,6.38-8.565,6.957
		C72.374,127.965,68.942,127.905,65.426,128.086z"/>
</g>
</svg>
