<?xml version="1.0" encoding="utf-8"?>
<!-- Generator: Adobe Illustrator 16.0.0, SVG Export Plug-In . SVG Version: 6.00 Build 0)  -->
<!DOCTYPE svg PUBLIC "-//W3C//DTD SVG 1.1//EN" "http://www.w3.org/Graphics/SVG/1.1/DTD/svg11.dtd">
<svg version="1.1" id="圖層_1" xmlns="http://www.w3.org/2000/svg" xmlns:xlink="http://www.w3.org/1999/xlink" x="0px" y="0px"
	 width="283.466px" height="283.466px" viewBox="0 0 283.466 283.466" enable-background="new 0 0 283.466 283.466"
	 xml:space="preserve">
<path fill="#AF9C7B" d="M283.466,226.772c0,31.311-25.383,56.693-56.693,56.693H56.693C25.383,283.466,0,258.083,0,226.772V56.693
	C0,25.383,25.383,0,56.693,0h170.079c31.311,0,56.693,25.383,56.693,56.693V226.772z"/>
<g>
	<path fill="#EBE9DD" d="M88.076,158.501v49.834H66.982V72.192h41.133c15.41,0,27.216,3.56,35.419,10.679
		c8.203,7.119,12.305,17.446,12.305,30.981c0,13.653-4.893,24.625-14.677,32.915c-9.786,8.293-21.885,12.203-36.299,11.734H88.076z
		 M88.076,89.858v51.064h15.117c20.332,0,30.498-8.73,30.498-26.191c0-16.581-9.756-24.873-29.268-24.873H88.076z"/>
	<path fill="#EBE9DD" d="M232.304,130.815c-3.047-1.991-7.09-2.988-12.129-2.988c-6.68,0-12.084,2.931-16.215,8.789
		c-4.131,5.86-6.197,13.624-6.197,23.292v48.428h-20.654v-97.208h20.654v19.336h0.439c4.805-14.003,13.301-21.006,25.488-21.006
		c3.633,0,6.504,0.411,8.613,1.23V130.815z"/>
</g>
</svg>
