<?xml version="1.0" encoding="utf-8"?>
<!-- Generator: Adobe Illustrator 16.0.0, SVG Export Plug-In . SVG Version: 6.00 Build 0)  -->
<!DOCTYPE svg PUBLIC "-//W3C//DTD SVG 1.1//EN" "http://www.w3.org/Graphics/SVG/1.1/DTD/svg11.dtd">
<svg version="1.1" xmlns="http://www.w3.org/2000/svg" xmlns:xlink="http://www.w3.org/1999/xlink" x="0px" y="0px"
	 width="1190.55px" height="841.89px" viewBox="0 0 1190.55 841.89" enable-background="new 0 0 1190.55 841.89"
	 xml:space="preserve">
<g id="圖層_1">
</g>
<g id="圖層_2">
	
		<rect x="-18" y="-7" display="none" fill="#EBE9DD" stroke="#231815" stroke-width="3" stroke-miterlimit="10" width="1220" height="857"/>
	<polygon fill="none" stroke="#FFFFFF" stroke-width="3" stroke-miterlimit="10" points="526.479,500.535 440.732,352.018 
		526.479,203.5 697.972,203.5 783.72,352.018 697.972,500.535 	"/>
	<circle fill="none" stroke="#FFFFFF" stroke-width="3" stroke-miterlimit="10" cx="964.5" cy="619.5" r="252"/>
	
		<rect x="402.964" y="627.581" transform="matrix(0.3143 -0.9493 0.9493 0.3143 -303.6631 1001.963)" fill="none" stroke="#FFFFFF" stroke-width="3" stroke-miterlimit="10" width="277.599" height="167.214"/>
	<polygon fill="none" stroke="#FFFFFF" stroke-width="3" stroke-miterlimit="10" points="367.332,193.593 392.807,-25.951 
		570.199,105.882 	"/>
	<circle fill="none" stroke="#FFFFFF" stroke-width="3" stroke-miterlimit="10" cx="779.5" cy="8.5" r="164"/>
	<polygon fill="none" stroke="#FFFFFF" stroke-width="3" stroke-miterlimit="10" points="1013.662,118.563 1016.338,4.837 
		1116.166,-49.709 1213.318,9.471 1210.645,123.198 1110.814,177.744 	"/>
	<polygon fill="none" stroke="#FFFFFF" stroke-width="3" stroke-miterlimit="10" points="643.332,989.593 668.807,770.049 
		846.199,901.882 	"/>
	
		<rect x="847.588" y="185.829" transform="matrix(0.9999 0.0121 -0.0121 0.9999 3.1376 -11.5793)" fill="none" stroke="#FFFFFF" stroke-width="3" stroke-miterlimit="10" width="227.09" height="136.789"/>
	<polygon fill="none" stroke="#FFFFFF" stroke-width="3" stroke-miterlimit="10" points="115.729,556.519 451.76,515.955 
		318.874,827.246 	"/>
	<polygon fill="none" stroke="#FFFFFF" stroke-width="3" stroke-miterlimit="10" points="13.168,866.535 -42.268,770.518 
		13.168,674.5 124.039,674.5 179.476,770.518 124.039,866.535 	"/>
	<circle fill="none" stroke="#FFFFFF" stroke-width="3" stroke-miterlimit="10" cx="214.5" cy="341.5" r="164"/>
	
		<rect x="-0.812" y="-50.288" transform="matrix(0.968 0.251 -0.251 0.968 14.4874 -35.7259)" fill="none" stroke="#FFFFFF" stroke-width="3" stroke-miterlimit="10" width="296.262" height="178.455"/>
</g>
</svg>
