<?xml version="1.0" encoding="utf-8"?>
<!-- Generator: Adobe Illustrator 16.0.0, SVG Export Plug-In . SVG Version: 6.00 Build 0)  -->
<!DOCTYPE svg PUBLIC "-//W3C//DTD SVG 1.1//EN" "http://www.w3.org/Graphics/SVG/1.1/DTD/svg11.dtd">
<svg version="1.1" id="圖層_1" xmlns="http://www.w3.org/2000/svg" xmlns:xlink="http://www.w3.org/1999/xlink" x="0px" y="0px"
	 width="132.586px" height="257.586px" viewBox="0 0 132.586 257.586" enable-background="new 0 0 132.586 257.586"
	 xml:space="preserve">
<path fill="#AF9C7B" d="M88.773,0H43.813C19.654,0,0,19.654,0,43.813v169.961c0,24.158,19.654,43.813,43.813,43.813h40.814V255
	H43.813c-22.732,0-41.227-18.494-41.227-41.227V43.813c0-22.732,18.494-41.227,41.227-41.227h44.961
	C111.506,2.586,130,21.08,130,43.813v3.41l2.586-0.06v-3.35C132.586,19.654,112.932,0,88.773,0z"/>
<path display="none" fill="#AF9C7B" d="M130,213.773C130,236.506,111.506,255,88.773,255h-4.147v2.586h4.147
	c24.158,0,43.813-19.654,43.813-43.813V47.162L130,47.222V213.773z"/>
</svg>
